<svg xmlns="http://www.w3.org/2000/svg" xmlns:xlink="http://www.w3.org/1999/xlink" preserveAspectRatio="xMidYMid" width="74.281" height="18.094" viewBox="0 0 74.281 18.094">
  <defs>
    <style>
      .cls-1 {
        fill: #1ebd9d;
        fill-rule: evenodd;
      }
    </style>
  </defs>
  <path d="M72.830,17.931 C71.972,17.931 71.504,17.411 71.374,16.605 L71.348,16.605 C70.750,17.463 69.736,18.087 67.968,18.087 C65.888,18.087 64.328,16.891 63.678,14.915 C63.366,13.953 63.236,12.939 63.236,11.535 C63.236,10.130 63.366,9.116 63.678,8.154 C64.328,6.178 65.888,4.982 67.968,4.982 C69.736,4.982 70.802,5.658 71.348,6.464 L71.374,6.464 L71.374,1.524 C71.374,0.562 71.972,-0.010 72.830,-0.010 C73.688,-0.010 74.286,0.562 74.286,1.524 L74.286,16.397 C74.286,17.359 73.688,17.931 72.830,17.931 ZM71.114,9.246 C70.724,8.050 69.892,7.582 68.774,7.582 C67.682,7.582 66.850,8.050 66.460,9.246 C66.278,9.792 66.200,10.547 66.200,11.535 C66.200,12.523 66.278,13.277 66.460,13.823 C66.850,15.019 67.682,15.487 68.774,15.487 C69.892,15.487 70.724,15.019 71.114,13.823 C71.296,13.277 71.374,12.523 71.374,11.535 C71.374,10.547 71.296,9.792 71.114,9.246 ZM60.818,12.471 L53.824,12.471 C53.720,12.471 53.668,12.523 53.668,12.627 C53.668,12.991 53.746,13.303 53.850,13.589 C54.266,14.811 55.254,15.487 56.684,15.487 C57.750,15.487 58.452,15.175 59.258,14.629 C59.596,14.395 59.934,14.213 60.324,14.213 C61.078,14.213 61.546,14.733 61.546,15.435 C61.546,15.929 61.338,16.267 60.948,16.579 C59.830,17.489 58.452,18.087 56.424,18.087 C53.746,18.087 51.874,16.787 51.172,14.603 C50.912,13.797 50.730,12.835 50.730,11.535 C50.730,10.234 50.886,9.246 51.146,8.440 C51.848,6.256 53.772,4.982 56.268,4.982 C58.842,4.982 60.714,6.308 61.416,8.440 C61.676,9.272 61.832,10.260 61.832,11.457 C61.832,12.055 61.468,12.471 60.818,12.471 ZM58.738,9.064 C58.400,8.050 57.464,7.452 56.294,7.452 C55.098,7.452 54.162,8.050 53.824,9.064 C53.720,9.376 53.668,9.688 53.668,10.130 C53.668,10.234 53.720,10.286 53.824,10.286 L58.738,10.286 C58.842,10.286 58.894,10.234 58.894,10.130 C58.894,9.688 58.842,9.376 58.738,9.064 ZM48.520,15.357 C49.430,15.435 49.846,16.007 49.846,16.657 C49.846,17.385 49.326,17.957 48.260,17.957 L48.026,17.957 C45.296,17.957 44.256,16.735 44.256,14.005 L44.256,7.686 C44.256,7.582 44.178,7.530 44.074,7.530 L43.710,7.530 C42.982,7.530 42.514,7.088 42.514,6.412 C42.514,5.736 42.982,5.268 43.710,5.268 L44.074,5.268 C44.178,5.268 44.256,5.216 44.256,5.112 L44.256,2.824 C44.256,1.862 44.880,1.290 45.738,1.290 C46.570,1.290 47.168,1.862 47.168,2.824 L47.168,5.112 C47.168,5.216 47.220,5.268 47.324,5.268 L48.650,5.268 C49.378,5.268 49.846,5.736 49.846,6.412 C49.846,7.088 49.378,7.530 48.650,7.530 L47.324,7.530 C47.220,7.530 47.168,7.582 47.168,7.686 L47.168,13.927 C47.168,14.941 47.454,15.253 48.520,15.357 ZM40.851,17.931 C40.331,17.931 39.915,17.749 39.629,17.333 L39.213,16.709 L39.187,16.709 C38.459,17.567 37.185,18.087 35.495,18.087 C32.530,18.087 30.944,16.683 30.944,14.291 C30.944,11.587 32.842,10.286 35.937,10.286 L38.511,10.286 C38.615,10.286 38.667,10.234 38.667,10.130 L38.667,9.818 C38.667,8.362 37.835,7.504 35.859,7.504 C34.974,7.504 34.116,7.764 33.570,8.024 C33.310,8.128 33.050,8.180 32.816,8.180 C32.114,8.180 31.620,7.712 31.620,6.984 C31.620,6.568 31.828,6.100 32.348,5.840 C33.154,5.372 34.454,4.982 36.171,4.982 C39.733,4.982 41.423,6.750 41.423,9.844 L41.423,13.797 C41.423,14.447 41.501,14.707 41.683,15.045 L42.073,15.721 C42.229,16.007 42.307,16.293 42.307,16.579 C42.307,17.359 41.683,17.931 40.851,17.931 ZM38.667,12.627 C38.667,12.523 38.615,12.471 38.511,12.471 L36.431,12.471 C34.506,12.471 33.726,13.017 33.726,14.161 C33.726,15.201 34.480,15.721 35.911,15.721 C37.601,15.721 38.667,15.071 38.667,13.745 L38.667,12.627 ZM28.423,12.471 L21.429,12.471 C21.325,12.471 21.273,12.523 21.273,12.627 C21.273,12.991 21.351,13.303 21.455,13.589 C21.871,14.811 22.859,15.487 24.289,15.487 C25.355,15.487 26.057,15.175 26.863,14.629 C27.201,14.395 27.539,14.213 27.929,14.213 C28.683,14.213 29.151,14.733 29.151,15.435 C29.151,15.929 28.943,16.267 28.553,16.579 C27.435,17.489 26.057,18.087 24.029,18.087 C21.351,18.087 19.478,16.787 18.776,14.603 C18.516,13.797 18.334,12.835 18.334,11.535 C18.334,10.234 18.490,9.246 18.750,8.440 C19.452,6.256 21.377,4.982 23.873,4.982 C26.447,4.982 28.319,6.308 29.021,8.440 C29.281,9.272 29.437,10.260 29.437,11.457 C29.437,12.055 29.073,12.471 28.423,12.471 ZM26.343,9.064 C26.005,8.050 25.069,7.452 23.899,7.452 C22.703,7.452 21.767,8.050 21.429,9.064 C21.325,9.376 21.273,9.688 21.273,10.130 C21.273,10.234 21.325,10.286 21.429,10.286 L26.343,10.286 C26.447,10.286 26.499,10.234 26.499,10.130 C26.499,9.688 26.447,9.376 26.343,9.064 ZM14.799,17.931 C13.941,17.931 13.473,17.411 13.343,16.605 L13.317,16.605 C12.719,17.463 11.705,18.087 9.937,18.087 C7.857,18.087 6.297,16.891 5.646,14.915 C5.334,13.953 5.204,12.939 5.204,11.535 C5.204,10.130 5.334,9.116 5.646,8.154 C6.297,6.178 7.857,4.982 9.937,4.982 C11.705,4.982 12.771,5.658 13.317,6.464 L13.343,6.464 L13.343,1.524 C13.343,0.562 13.941,-0.010 14.799,-0.010 C15.657,-0.010 16.255,0.562 16.255,1.524 L16.255,16.397 C16.255,17.359 15.657,17.931 14.799,17.931 ZM13.083,9.246 C12.693,8.050 11.861,7.582 10.743,7.582 C9.651,7.582 8.819,8.050 8.429,9.246 C8.247,9.792 8.169,10.547 8.169,11.535 C8.169,12.523 8.247,13.277 8.429,13.823 C8.819,15.019 9.651,15.487 10.743,15.487 C11.861,15.487 12.693,15.019 13.083,13.823 C13.265,13.277 13.343,12.523 13.343,11.535 C13.343,10.547 13.265,9.792 13.083,9.246 ZM1.539,17.931 C0.655,17.931 0.005,17.307 0.005,16.319 L0.005,1.602 C0.005,0.614 0.655,-0.010 1.539,-0.010 C2.423,-0.010 3.073,0.614 3.073,1.602 L3.073,16.319 C3.073,17.307 2.423,17.931 1.539,17.931 Z" class="cls-1"/>
</svg>
